<?xml version="1.0" encoding="utf-8"?>
<!-- Generator: Adobe Illustrator 21.1.0, SVG Export Plug-In . SVG Version: 6.00 Build 0)  -->
<svg version="1.1" xmlns="http://www.w3.org/2000/svg" xmlns:xlink="http://www.w3.org/1999/xlink" x="0px" y="0px" width="160.5px"
	 height="295.4px" viewBox="0 0 160.5 295.4" style="enable-background:new 0 0 160.5 295.4;" xml:space="preserve">
<style type="text/css">
	.st0{display:none;}
	.st1{stroke:#000000;stroke-miterlimit:10;}
	.st2{fill:#FFFFFF;stroke:#000000;stroke-width:0.5;stroke-miterlimit:10;}
	.st3{fill:#FFFFFF;stroke:#000000;stroke-miterlimit:10;}
</style>
<metadata><?xpacket begin="﻿" id="W5M0MpCehiHzreSzNTczkc9d"?>
<x:xmpmeta xmlns:x="adobe:ns:meta/" x:xmptk="Adobe XMP Core 5.6-c137 79.159768, 2016/08/11-13:24:42        ">
   <rdf:RDF xmlns:rdf="http://www.w3.org/1999/02/22-rdf-syntax-ns#">
      <rdf:Description rdf:about=""
            xmlns:xmpMM="http://ns.adobe.com/xap/1.0/mm/"
            xmlns:stRef="http://ns.adobe.com/xap/1.0/sType/ResourceRef#"
            xmlns:stEvt="http://ns.adobe.com/xap/1.0/sType/ResourceEvent#"
            xmlns:stMfs="http://ns.adobe.com/xap/1.0/sType/ManifestItem#"
            xmlns:dc="http://purl.org/dc/elements/1.1/"
            xmlns:xmp="http://ns.adobe.com/xap/1.0/"
            xmlns:xmpGImg="http://ns.adobe.com/xap/1.0/g/img/"
            xmlns:xmpTPg="http://ns.adobe.com/xap/1.0/t/pg/"
            xmlns:stDim="http://ns.adobe.com/xap/1.0/sType/Dimensions#"
            xmlns:stFnt="http://ns.adobe.com/xap/1.0/sType/Font#"
            xmlns:xmpG="http://ns.adobe.com/xap/1.0/g/">
         <xmpMM:DerivedFrom rdf:parseType="Resource">
            <stRef:instanceID>xmp.iid:20d97391-4f52-4b59-9e6d-b797fcdc9ec1</stRef:instanceID>
            <stRef:documentID>xmp.did:20d97391-4f52-4b59-9e6d-b797fcdc9ec1</stRef:documentID>
            <stRef:originalDocumentID>xmp.did:20d97391-4f52-4b59-9e6d-b797fcdc9ec1</stRef:originalDocumentID>
            <stRef:renditionClass>proof:pdf</stRef:renditionClass>
         </xmpMM:DerivedFrom>
         <xmpMM:DocumentID>xmp.did:6e2374f5-87ae-4499-a3b2-8c74e6e6e8b9</xmpMM:DocumentID>
         <xmpMM:InstanceID>xmp.iid:6e2374f5-87ae-4499-a3b2-8c74e6e6e8b9</xmpMM:InstanceID>
         <xmpMM:OriginalDocumentID>xmp.did:20d97391-4f52-4b59-9e6d-b797fcdc9ec1</xmpMM:OriginalDocumentID>
         <xmpMM:History>
            <rdf:Seq>
               <rdf:li rdf:parseType="Resource">
                  <stEvt:action>saved</stEvt:action>
                  <stEvt:instanceID>xmp.iid:20d97391-4f52-4b59-9e6d-b797fcdc9ec1</stEvt:instanceID>
                  <stEvt:when>2018-03-29T13:41:29+02:00</stEvt:when>
                  <stEvt:softwareAgent>Adobe Illustrator CC 2017 (Macintosh)</stEvt:softwareAgent>
                  <stEvt:changed>/</stEvt:changed>
               </rdf:li>
               <rdf:li rdf:parseType="Resource">
                  <stEvt:action>saved</stEvt:action>
                  <stEvt:instanceID>xmp.iid:6e2374f5-87ae-4499-a3b2-8c74e6e6e8b9</stEvt:instanceID>
                  <stEvt:when>2018-03-29T14:15:34+02:00</stEvt:when>
                  <stEvt:softwareAgent>Adobe Illustrator CC 2017 (Macintosh)</stEvt:softwareAgent>
                  <stEvt:changed>/</stEvt:changed>
               </rdf:li>
            </rdf:Seq>
         </xmpMM:History>
         <xmpMM:RenditionClass>proof:pdf</xmpMM:RenditionClass>
         <xmpMM:Manifest>
            <rdf:Seq>
               <rdf:li rdf:parseType="Resource">
                  <stMfs:linkForm>EmbedByReference</stMfs:linkForm>
                  <stMfs:reference rdf:parseType="Resource">
                     <stRef:filePath>/Volumes/SAMSUNG/SHANNON/SHNNN.TK/SHstatic/img/Shannon.png</stRef:filePath>
                     <stRef:documentID>xmp.did:d254e1bb-7dd1-46b4-baf6-b27dc7536c03</stRef:documentID>
                     <stRef:instanceID>xmp.iid:d254e1bb-7dd1-46b4-baf6-b27dc7536c03</stRef:instanceID>
                  </stMfs:reference>
               </rdf:li>
               <rdf:li rdf:parseType="Resource">
                  <stMfs:linkForm>EmbedByReference</stMfs:linkForm>
                  <stMfs:reference rdf:parseType="Resource">
                     <stRef:filePath>/Volumes/SAMSUNG/SHANNON/SHNNN.TK/SHstatic/img/SHNNNlogo.png</stRef:filePath>
                     <stRef:documentID>xmp.did:a0b6f142-40b6-4b34-8a1b-ab40974723b1</stRef:documentID>
                     <stRef:instanceID>xmp.iid:a0b6f142-40b6-4b34-8a1b-ab40974723b1</stRef:instanceID>
                  </stMfs:reference>
               </rdf:li>
            </rdf:Seq>
         </xmpMM:Manifest>
         <xmpMM:Ingredients>
            <rdf:Bag>
               <rdf:li rdf:parseType="Resource">
                  <stRef:filePath>/Volumes/SAMSUNG/SHANNON/SHNNN.TK/SHstatic/img/Shannon.png</stRef:filePath>
                  <stRef:documentID>xmp.did:d254e1bb-7dd1-46b4-baf6-b27dc7536c03</stRef:documentID>
                  <stRef:instanceID>xmp.iid:d254e1bb-7dd1-46b4-baf6-b27dc7536c03</stRef:instanceID>
               </rdf:li>
               <rdf:li rdf:parseType="Resource">
                  <stRef:filePath>/Volumes/SAMSUNG/SHANNON/SHNNN.TK/SHstatic/img/SHNNNlogo.png</stRef:filePath>
                  <stRef:documentID>xmp.did:a0b6f142-40b6-4b34-8a1b-ab40974723b1</stRef:documentID>
                  <stRef:instanceID>xmp.iid:a0b6f142-40b6-4b34-8a1b-ab40974723b1</stRef:instanceID>
               </rdf:li>
            </rdf:Bag>
         </xmpMM:Ingredients>
         <dc:format>image/svg+xml</dc:format>
         <xmp:CreatorTool>Adobe Illustrator CC 2017 (Macintosh)</xmp:CreatorTool>
         <xmp:CreateDate>2018-03-29T14:15:34+02:00</xmp:CreateDate>
         <xmp:MetadataDate>2018-03-29T14:15:34+02:00</xmp:MetadataDate>
         <xmp:ModifyDate>2018-03-29T14:15:34+02:00</xmp:ModifyDate>
         <xmp:Thumbnails>
            <rdf:Alt>
               <rdf:li rdf:parseType="Resource">
                  <xmpGImg:width>228</xmpGImg:width>
                  <xmpGImg:height>256</xmpGImg:height>
                  <xmpGImg:format>JPEG</xmpGImg:format>
                  <xmpGImg:image>/9j/4AAQSkZJRgABAgEASABIAAD/7QAsUGhvdG9zaG9wIDMuMAA4QklNA+0AAAAAABAASAAAAAEA&#xA;AQBIAAAAAQAB/+4ADkFkb2JlAGTAAAAAAf/bAIQABgQEBAUEBgUFBgkGBQYJCwgGBggLDAoKCwoK&#xA;DBAMDAwMDAwQDA4PEA8ODBMTFBQTExwbGxscHx8fHx8fHx8fHwEHBwcNDA0YEBAYGhURFRofHx8f&#xA;Hx8fHx8fHx8fHx8fHx8fHx8fHx8fHx8fHx8fHx8fHx8fHx8fHx8fHx8fHx8f/8AAEQgBAADkAwER&#xA;AAIRAQMRAf/EAaIAAAAHAQEBAQEAAAAAAAAAAAQFAwIGAQAHCAkKCwEAAgIDAQEBAQEAAAAAAAAA&#xA;AQACAwQFBgcICQoLEAACAQMDAgQCBgcDBAIGAnMBAgMRBAAFIRIxQVEGE2EicYEUMpGhBxWxQiPB&#xA;UtHhMxZi8CRygvElQzRTkqKyY3PCNUQnk6OzNhdUZHTD0uIIJoMJChgZhJRFRqS0VtNVKBry4/PE&#xA;1OT0ZXWFlaW1xdXl9WZ2hpamtsbW5vY3R1dnd4eXp7fH1+f3OEhYaHiImKi4yNjo+Ck5SVlpeYmZ&#xA;qbnJ2en5KjpKWmp6ipqqusra6voRAAICAQIDBQUEBQYECAMDbQEAAhEDBCESMUEFURNhIgZxgZEy&#xA;obHwFMHR4SNCFVJicvEzJDRDghaSUyWiY7LCB3PSNeJEgxdUkwgJChgZJjZFGidkdFU38qOzwygp&#xA;0+PzhJSktMTU5PRldYWVpbXF1eX1RlZmdoaWprbG1ub2R1dnd4eXp7fH1+f3OEhYaHiImKi4yNjo&#xA;+DlJWWl5iZmpucnZ6fkqOkpaanqKmqq6ytrq+v/aAAwDAQACEQMRAD8A9U4qlN2P0nqDaef94LdQ&#xA;14v+/WeoWL/U2Jb328cVTbFXYq7FXYq7FXYq7FXYq7FXYq7FXYq7FXYq7FXYq7FXYq7FXYq7FXYq&#xA;7FXYq7FXYq7FXYql2lW1zBcXnqJwikkaRCSCWZpHJYUJovAoKHvXFUxxV2KuxV2KuxV2KuxV2Kux&#xA;V2KuxV2KuxV2KuxV2KuxV2KuxV2KuxV2KuxV2KuxV2KuxV2KuxV2KuxV2KuxV2KuxV2KuxV2KuxV&#xA;2KuxV2KuxV2KuxV2KuxV2KuxV2KuxV2KuxV2KuxV2KuxV2KuxV2KuxV2KuxV2KuxV2KuxV2KuxV2&#xA;KuxV2KuxV2KuxV2KuxV2KuxV2KuxV2KuxV2KuxV2KuxV2KuxV2KuxV2KuxV2KuxV2KuxV2KuxV2K&#xA;uxV2KuxV2KuxV2KuxV2KuxV2KuxV2KuxV2KuxV2KuxV2KuxV2KuxV2KuxV2KuxV2KuxV2KuxV2Ku&#xA;xV2KuxV2KuxV2KuxV2KuxV2KuxV2KuxV2KuxV2KuxV2KuxV2KuxV2KuxV2KuxV2KuxV2KuxV2Kux&#xA;V2Koax1G0vVmNuxb6vK0EtVK0kSnIbgeOKonFXYq7FXYq7FXYq7FXYq7FXYq7FXYq7FXYq7FXYq7&#xA;FXYq7FXYq7FXYq7FXYq7FXYq7FUN+kLX9JHTuR+tCEXHGhp6fLhXl0+12P8AXFUh0H/QvNesacQ4&#xA;SWlzbhqcRHIxmZ6+Mk9xMo9o/lirJ8VdirsVdirsVdirsVdirsVdirsVdirsVdirsVdirsVdirsV&#xA;dirsVdirsVdirsVdirsVYvr4Fl5q0fUOLFLg/VpCCKGVOQhU+AWK4uZD/q4qp+aiNN8w6PrQA9KV&#xA;msbojkSW4tJASo2NF9eNR/PIuKssBDAEGoO4I6EYq7FXYq7FXYq7FXYq7FXYq7FXYq7FXYq7FXYq&#xA;7FXYq7FXYqgtG1e21bT4r63VkSUA+m/HmoYBl5BS1OSMrj/JIOKo3FXYq7FXYq7FXYq7FUg89WLX&#xA;Ply4mjjMs9hS8ijWvJxDvLElP2poC8Q/1sVbuIIvM/lJoVnCy3MStDdoGAS4jIkhuEFVNFlVZUr1&#xA;FPHFVnkvW/0jpSJKgguoC8U9sDX0pYW9OaEf8YZPhHinBv2sVZDirsVdirsVdirsVdirsVdirsVd&#xA;irsVdirsVdirsVdirsVYv5PpaX2r6RxRBa3JMYUndSA0aKDT4YrV7dfnirKMVdirsVdirsVdirsV&#xA;dirC/Kcn6D1m/wDLMo4W9syS6dv1s7hiLciv++nDWxqa0WL+bFW9cj/w95lTVuXo6NrTxw6hMalb&#xA;XUQBDa3TA7BJ0pbydBUR+JOKssguubejMvpXIFTGTUMB+0h/aX9XemKq+KuxV2KuxV2KuxV2KuxV&#xA;2KuxV2KuxV2KuxV2KuxV2KsU1mQaT5y0/USONvqULWs70UASQVkALHpziZ5GPhABirK8VdirsVdi&#xA;rsVdirsVdirGvO2l3kkFtremQm41TRjI62g63VpKALqz8Kyqqslf92KvauKoi3vNE13y+gnZL/Qt&#xA;WtwIp5N0kilFPTlP7L7037/5WKpDDqMnlhl0TzdJ9Y0HkF0bzHP9lV6JBfSf7qnj6JMaLJ4h9iqy&#xA;vQblrjS43Mgm4NLCs4YP6iwytEshYbEuE5H3OKphirsVdirsVdirsVdirsVdirsVdirsVdirsVdi&#xA;rsVSfzbo82q6JLDa8RqEDLdac704i4gPOMNWvwPTg/8AksRiq3ynrcGq6Rbzx8wHSsaygiQKDxZH&#xA;r/uyJwYpO/Ja9xiqdYq7FXYq7FXYq7FXYq7FWHXlleeVL+61PT7aW+8uahIZtV0qBDJLbTP/AHl1&#xA;axDd0kJrNEo5V+NankpVUrDVNC1LWIYtPvIbvy9dwFYWt5gVW5nFRBxQ/Avp2rngR9okEb0xVk2l&#xA;2dppMEWm21vFbWilvqywRpDHViXYcIwqKxYljQbmpxVMMVdirsVdirsVdirsVdirsVdirsVdirsV&#xA;dirsVdirsVYbcw/4f80hgfR0jXpuUNwBVLbVGHFlcbfurxVG3+/R15OpCrKYL6N5BBMPRut/3LH7&#xA;XHq0Z25r7j6QDtiqJxV2KuxV2KuxV2KuxVL/ADB6g0i4kjUv6HCd4lXm0kcLrLJEFHUyIhQfPFUv&#xA;n8ueXJra6lNjbX1hqixvfMUWV5lj+OKT1KF5eBbktWJHVN9iqktxFd+Tbf1GuZtS8jlR6vqs9xd6&#xA;YKjhNHMeck1snVuRLxU5Ala8VWY2F0J4d3V3SlZEIKurCqSLT9lxv+HbFUTirsVdirsVdirsVdir&#xA;sVdirsVdirsVdirsVdirsVQ2p6ZYapp8+n38Ins7lSk0TVFR1qCCGVgd1YGoO43xVikt9caPZSaP&#xA;5teSXTQtLLzOFJUCvGP62yg/V7iP4SJjRGNCCrfDirIrHWoH8vWmr3kiRRz28M8jISycplUhUpUt&#xA;yZqKBudgN8VaRtYvwWFdMtW+xsr3bdDUhucUXT7JDkg/sNtiqI/R9ByW5nWXvLz5V8fgYNEK+yfL&#xA;FVS1nkcyRTUE8JAfiCFYEVV1BqaH9YIqaVxVXxV2KuxV2KsRv/J1xpMsmqeTGWxvKmS40ZmK6deb&#xA;1ZTHutvK37MsYG/2wwxVH+WtfstVtucKPCkjvDNYzqFmtrqP++tpV3of2lpUEVIPHjiqUaPEfKvm&#xA;AaF9nR51abRelI4OQ9e07bW0jq8VdhEzAfYxVm2KuxV2KuxV2KuxV2KuxV2KuxV2KuxV2KuxV2Ku&#xA;xV2Koe/v7awtJLu5YrDHSvEFmJYhVVVUFmZmIVVAqTsMVSS3Go6jdrdtGouYi3orLV7ezNCpHFGA&#xA;nudyrlWonxKG6+oqjJvLFldD/T7i7u27lrmWJSK1AMVu0MO3jwr9OKpLruk3Pliwl13y9LcNHYK1&#xA;xqGjzTy3ENzbqOUoi9ZpDDMqgtGUIBPwsDWqqsh0+6gu7pru3cSW9xa20kUg6MrmVlP0hgcVTDFX&#xA;Yq7FXYq7FWG+brA6Pqaea7M+lDJ6dv5gUV4+ippBelR+3auRzPeIsD9lcVTDzRYvq3l8XVvCX1HT&#xA;3+uWkIJ5GaEMstvUU/vUMkB9mxVNND1CPUNKtrqOT1VkQES9OYp8L07c1ow9jiqOxV2KuxV2KuxV&#xA;2KuxV2KuxV2KuxV2KuxV2KuxVZNNDBDJPPIsUMSl5ZXIVVVRVmZjsAB1OKsas47vzDfrqMwe30+A&#xA;n6jGeSOAwKmSmxWaRSQW6xoeIpIz8FWTRxxxRrFEoSNAFRFACqoFAAB0AxVdiqy4kjigkklBMSKz&#xA;OApc8QKmiqCW27AYqx38uLK6tPJekR3cTQXP1O2SWFwQytDbxwb8t9/S5b+OKslxV2KuxV2KuxVT&#xA;uLeC5t5be4jWWCZGjmicVVkcUZWB6gg4qxvyQ01ml3oVxI0kulyGCORzyZ40VTGxIpUm3eFnPd2b&#xA;FVXyqgsbrUtJACx207GAA7cTSRUUdligmgSmKsjxV2KuxV2KuxV2KuxV2KuxV2KuxV2KuxV2KuxV&#xA;i2ozSeYdXbSLZgNMsXDX84+ISTIdox1UrEw3B2MgoaiN0ZVk0MMcMSxRjjGgoo67D3OKr8VdirsV&#xA;dirsVdirsVdirsVdirHtSX6l5qs74VEd5ELeY025RycI0X3c3XJvaP2xVMTpTDXRqiShVMHoSw8K&#xA;ljyqGD8gBXbl8JJ4ruKGqqYYq7FXYq7FXYq7FXYq7FXYq7FXYq7FXYq7FUh806xcW6Q6XpzH9L6h&#xA;VYSoBMMQ2ebcFaioCV25GpHFWoqmGiaRa6Tp8VnbqAqD4iK7t9JLH/ZEnxJO+Ko7FXYq7FXYq7FX&#xA;Yq7FXYq7FXYq7FUv1vSW1K2jjSb6vPC5khm48+LFGiJ41XcJI3E12ah3pQqphirsVdirsVdirsVd&#xA;irsVdirsVdirsVdirsVQ2p6ja6bYT310xWCBeTUFWY9FRF6s7sQqqNySAMVSbytYXUzza7qIpfX9&#xA;GSPnzWKIV9ONCKAqgJAI61ZxT1CMVZFirsVdirsVdirsVdirsVdirsVdirsVdirsVdirsVdirsVd&#xA;irsVdirsVdirsVdirsVdirE7tv8AEfmEWSEnSNJflcEEcZrkEqRtvSLdR2L8+jRDFWWAACg2A6DF&#xA;XYq7FXYq7FXYq7FXYq7FXYq7FXYq7FXYq7FXYq7FXYq7FXYq7FXYq7FXYq7FXYq7FUk81azLYWSW&#xA;1mwGqX5MNkBxZk2+ObgftCMHYftOVTqwxVFaBo8Ok6ZFaRijAAyEsWJagG7GnL/W6t1O5OKpjirs&#xA;VdirsVdirsVdirsVdirsVdirsVdirsVdirsVdirsVdirsVdirsVdirsVdirsVWTTQwQyTzyLFDEp&#xA;eWVyFVVUVZmY7AAdTirGvL0M2rapN5gu1ZFYCOxgcEGOAVMYKkCjMG9ST/KZVO8QxVlGKuxV2Kux&#xA;V2KuxV2KuxV2KuxV2KuxV2KuxV2KuxV2KuxV2KuxV2KuxV2KuxV2KuxV2KsY8y3L6lfx6Bb0aFSk&#xA;mpEn4W5VMFqwFKh+JklFf7pSKfvBirIrW3S3gSFCSF6s1OTMTVmalPiYmp98VVcVdirsVdirsVdi&#xA;rsVdirsVdirsVdirsVdirsVdirsVdirsVdirsVdirsVdirsVdiqC1nVF0zT5Lr0zPLVY7a2U0aWa&#xA;RgkUYPbk5Ar0HU7DFUv8saU9tE9xcSCe6kd2muACBLO5HryqDuE5KscYNaIi0NDiqe4q7FXYq7FX&#xA;Yq7FXYq7FXYq7FXYq7FXYq7FXYq7FXYq7FXYq7FXYq7FXYq7FXYq7FXYqxV5JNa1szRsRaWTyW2n&#xA;EGlZwCl5dj/jCrGCM0+2W7EHFWURxxxRrHGoSNAFRRsAAKADFV2KuxV2KoPUNVt7KSGAq893c8vq&#xA;1pCA0jhKczuVVVXkKszBdwK1IxVU0+6a7s47kxmIS1ZEJDfBU8GqP5lo2KojFXYq7FXYq7FXYq7F&#xA;XYq7FULqWpW2nWpubipHJY440HJ5JJGCpGg7szEAfjtiqnp99d3Fxcxz2ot0h9PgfUEjVcElJAo4&#xA;o6ihoGYUI3xVHYq7FXYq7FXYq7FXYq7FWOax5wtLW4mtbZwWtBzv7r0pblIFG7AxQVkY06nZV6lq&#xA;/CVUw0edpi7RXzahZmON47pvRIYyLzHAwpGpHpsrVoa8hTFVLzJe3Sww6Xp7mPU9UYwwSihMMSis&#xA;9zQ/76Q/D25lFP2sVQtlc2OnQwWunwerM8KxaVYK1AtrH8KSSOeXpo5+IufiIoKMwpiqPthqSXkU&#xA;dxd+vKymW6iRESCNKFVCCjSgs+45Oa0bpsMVTPFVO5ure1t3uLmVYYIhyklchVUeJJxVj93rOsXa&#xA;zGxVbC0hBae7uqRsiAcub81ZYvhHLgyM1PtiLY4ql2lWur6jpL3LND+nNVgJa7miYcbBXb6qskId&#xA;hG0ofkVG27VDFd1WT6LHq8enourSRyXtT6hibkn0N6cNfH7Ap03pUqrdS1Y2t5Z2FvD9Yvr0yNHG&#xA;WKIkMIBllkcK9FUui9CSzKOlSFVWTVLWLTUv5iUikRGVQCzlpKcUVVqWZiaADcnFUHby6u97by3L&#xA;+gtwzcdMURsY4VRjzlkHItJzKcuDcFqF+L7RVTfFUqutdMWpTWUNuZhaQLc3s3LiEWRmCImx5yN6&#xA;bHjtQU33GKonUtSSyRAEM91OeFrap9uR+vfoo6sx2AxVQsTqa3vC8uFldojLPBGoEUJZlWJY2IDs&#xA;KK9WY7kVooouKpniqA1TWrTT6I9ZbllLpbx05cF+1IxYhURe7sQO3UgFVjlvfahqvnK3tdVgjt7f&#xA;TbUatbQIxYrLIZLVGmLqp+z6jJstK/EOQ2VZRpYY2STOCJLis7hvtAyHkEJ78FIT5DFW9S1C103T&#xA;7m/u2KW1rG00rAVPFBU0A3J8B3xVT02+urlKXVt9UuPTjlaHn6nESVorMAo5rx+ICo8CcVQcmpT3&#xA;xkazl+q6XbVa41KisZPT3ZbcNyXiKHnIykdlqfiVVM7Jp2s4GuBxuGjQzL4OVHIbe+Kq2KuxV2Kp&#xA;R5j1K4t47XT7FwmqapL9XtHorekoUvNcFW2IijUkVFC/FT9rFV/lnT7Wx0S1jt14+qgmlYkszySj&#xA;k7O7VZiSerEnFUTY2Gl6NpsdpZwxWOnWiUSJAI440UVJ7AeJOKsPubzU7i3bVre3Muo+YCLfS4ZA&#xA;QkGnIeQLgcW5TcubLyVviALKIyyqrYNGgj8xWzXUhvbnRx+kdUvCFZmu542gtbaPjw+Lg7sV4j/d&#xA;QAClVVVmtlA8UbPNQ3Mx9Scg1HIgDiuw2UAKNu1TvXFVS6ube1t5bm4kEUEKl5ZGNAqqKknFWPol&#xA;/ql9HcTkwiizWVk6720W4+sTKa1uH3EatsngSGxVbrot5ZYPLsVY9Pjj+u6045GlmjEiJmrUtdSK&#xA;3KteSLJXc4qnthFII2nmHG4uDzkU78BSix9T9gbbbE1PfFUTirCbfUrSZLzzHeSelBqoWK0eh5Jp&#xA;cLFYuACqxe8kkLoB8VHXqUxVC61b3etXWnw3jm0W4f6wluj8FtdOtyHnlkZduco4w1rsHPH4QxZV&#xA;mtijuXvJVKyz04I2xjiH2UIoKE/ab3NNwBiq7UtQtdN0+5v7tiltaxtNKwFTxQVNANyfAd8VYraX&#xA;D6bZerqKc9Vvp/r19aIQzPdyBTBaqRX4baNYwW2+yh35UxVAWtlfTeaY77UpnmvNPQXl/HE1ESSc&#xA;NFZWCANT9tpHU9D6Z35FmVZ3ZW7QxH1CGnlYyTuOhc7beygBV9gMVQ2sao1lHHDboJ9SuyY7G23o&#xA;zAVZ3I+zHGPidvoFWKgqoXStLT1Xklc3DK4NxdMKG4uY9ixXekcJ2jStAa9wGKqVwGW717zZMwrC&#xA;VstHgf8AZ5CNpD0/le/3P0dsVZdirGdeuYtQ1iHTa+pY6WUv9VVdy0ykGytadC7yfveNa/Cm1HxV&#xA;Lr7VvrVjelJeGmQc5dZvoaMZZAOJtrf7PP7IjHdth/rKpj5T0ie0023sbkUkhdrzUE5mRVuZ2MyW&#xA;6sxaqW4ZaewT3xVk2KuxV2KuxVjd84H5iaOkvAK2laibU1PMuLiy9UUO32eNKb/axVOdL+G19Hp6&#xA;EkkSp3VEciMH/nnxpXqN8VSvXz+lL6Hy6pP1eRBdaywqALQMVSEn/l5dSpHeNZB4YqrXupx2dhca&#xA;7cI8kcUdLG1UUd+ZCxqqn/dlw5VVB8VGx5YqoeXtLmgUR3TiS6WQ3epyKSVkvpxyKiprwhjKqgP7&#xA;PDuuKsgxVjdzO2qag8zKzaPpc3pwwjb63qCPxH/POCT4RXb1Kk09MEqplcXMGjaVcX12TI4/ez+m&#xA;BzlmeiJHEpIqzNxjjWtfsiuKoDRdMuEci9o1/cyDUNXZd0EpAWCBDQVSFUABG/wAkfGcVZDirH/N&#xA;cjXog8t27ETatyF461rFYJT6y9eJAMgIhTcGr8h9k4ql9hpwu7mfXdX4W+k2lXsbVgEjighQhXau&#xA;wonKvhVgtF5GRVEaFbT6hdS6ndxtFPqHpzSROCrw2cZY2dqw7MatNKK7MSpqpGKsoxVjOvXUV/qf&#xA;1D+9stGC6lqqqygNLH+8tLdifhHxL6zVIpxSvwviqEsrSTSrO48z6zGbnVnUCC3TkSHmYLHBEH+y&#xA;ZJHVF5AHffiPhVVMvLelywKWuXE1wsjz3k614y30wpMyVqeEK/uY99gOJ3XFU7uLiC2t5bm4kWKC&#xA;FGkmlc0VUQVZmJ6AAYqx/TEu7pjqdwrQ6hq68baJwFktLBDyAp2kYNyfrSRlU1VBiqZ6xqUGiaM9&#xA;wkPqeiqQ2lqh4mSV2EUEKmhpzdlWvbrirCrNdQ8tOk+qXDSaJqduryX/AKbGK21GOd7g3M4UfBHd&#xA;tMXLMtE4hGI2xVNtT8/wnTrqfSkWf6shkmvVeK5t0RVLFq2zyfFQfCr8C3arUUqoO10bW3hstMBN&#xA;tPdV1HXbgsWl5zVCx81KgFQpBIpvT01Xdo1UfcxQPqUGk2MKrpuiNG7wAcUmv3AktoaAU4wKRcSU&#xA;Hw/u2HQ4qyi1t1t4FiB5EVLuaAs7GrMad2O+KoLzDrSaRpr3PD1rlyIrO2rQyzsDxStDQbFmNPhU&#xA;E9sVXeprX6E9TjF+lvS5cOB9Pn148PU8O3qde/fFUwxV2Ksa8yQKvmnyjeg0l+uXVmRUUMc1hPO3&#xA;/D2iYqmEmp2un6fqWrXRKW8csjsoHxn0QIOKj9pnaP4B3JAxVA6RptwIGjvQP0lqrfXdapQhEYBU&#xA;tgd6qqqIht8Sq7faOKrdTlF9rqgj1LLQCsrx9BNqM68beKpH+6o5A/hWRD+ziqf2Vube2SJm5yCr&#xA;SuBTlIxLO1O3JiTTFUs8y31ykMGmWEnp6pqjmC3ccS0MQFZ7niT0hj6bU5lFP2sVVdMsLSH0be0j&#xA;EWn6Wot7OMbjmF4swO9eC/BWta864qxo6xF5k80HgeXl/QEN08ijks8zBkRhT7S8Q/CnUfFQh4yF&#xA;WY2EEkUHKYAXEx9W4pQ/GwHw1HUIAFB8BiqH17W7TRtOe8ud6fDDENjJJQkKPDZSSx2VQWOwOKsd&#xA;8qWt9erJqOoAjUdXpNcvQq0VipIhiQH4kEhqQux41LfvKkqo7zFNFe3sOiUrY26Lfawij7UKsRbW&#xA;wFKN9YlQ1Wu6oVP2xiqeWNu8MFZaG4lJkuCNwXbqAfBRRV9gMVQHmXzBFo1j6gX1r2Y8LO2AJLuS&#xA;BUhd+ClhXx2VauyqVUH5c0iaG3EN25mn9T61qkz7tLeSUYKe3GJeOy/D9kLQLxxVRu7htV14tDR7&#xA;bR5PQtK0ZJNTlQh32I5Lawsaiv2mYfaQYqyW3gSCBIUqVQAAsasfdj3J6k4qkeu/7ldYs/L4HK1R&#xA;V1DVq9DDG9LeHcU/fTIWO/2Y2U/axVNNP/ftJfncT/Db+AhT7JHb4zV6+BA7YqkEwbzD5jEdK6Vp&#xA;LOu9KSzkNFK49k+OBdv9+9CqnFWV4qxrW7k32sRWKKZLDS2S71ELT95dVU2VqCe/MiZv5aJXZsVR&#xA;up3raLo8lzxW51Kdljhj+yJ7uYhIkHUhORA/yUFT0OKqflvSltIQhk+sG3aT1bkgD17yRi11OQNv&#xA;tkov8vxL0xVOZ54beCS4ndYoIVaSWRjRVRRVmJPYDFWNaRbXGu6t+nb+Ix2dvWPSLRxRlHIFppFP&#xA;SRio2P2aAUBDFlWUYqx7WtYvpdXby/pb/V75bI6hLclVc8OZjjjjVqryd1PIt0Xpuaqqn8UqSxJL&#xA;GeUcihkbxBFQcVYvqs0t75xsobViw0iKZ2Xcx/XLpFSLkAR/c27SO9egkQDdxiqpcCG61SOxqw0f&#xA;y6qXF6x5H1LpUDwRtT7fopSdhT7RjI6HFUxu74aPol/rN6hLxRSXc8KkFqRpVYV3IJooXbq2/fFU&#xA;JoOlz2Vtp1reENeyCbUNRkH7d45X1Om3ANOeI7BVA6YqmWraxa6ZAJJQ0kr1EFtGOUkjeCj9bHYd&#xA;zirF/K9zf3V1rnmC+VTeJL+jbOEMfTUwkBokNBt9Yb02J/aUsNjTFVbUryK9sZNPtrj09GtUeTWN&#xA;TPSSJQxm47HkrEMXf9rdVr8ZVVd5M0tYdHsQ0Poy6m7avexH4ivLiYIWbY8ol9JeXf0zXrirI9T1&#xA;Sy0y0a5u34IDxRf2nehIRB3Y0/zGKsG+p3HmHXpbnWiVsdNVZbm0UVCLIA8Vmf2maQcZJlp8XwA1&#xA;DBUVZnJcw6VpV3qmoHgI0e7vCPiKqi14LT7XBFCig+KlepxVLPL2n3aqjagtNQu3OqaqlahZpPht&#xA;4K9GWFE4AjvGD3xVNdY1q00q3EswaSWQ8YLeMVkkbwA2AA7sdh3OKsP0G3vdT1KbzDqHGa4jma00&#xA;yKhWM3CEo5ANG9K3IdR3JEj0+xRVk+s3raJon+ihZr+V0t7GOSg9W7uH4qXA41HNjJJx6KGPbFXa&#xA;FpcVkq2sbNJHYKYvVkJLy3E1JridzU8mkZwa/wAxbFW9e1ySxVbSxjFzq04H1e3P2VBJAkkoR8Ox&#xA;oOrUPQBmVVJPKXOTy5eapzLXGsXjr9bU1kZPWFnHNzASvwr6ibDiCFFFAAVTLzDqM6CPRNJPC/uA&#xA;FZ49vq0BqOQoCFdgpEdRtQtQhCCqmejaTbaVp8VnbqqpGACEFFqAFAAJJoqqFFSTQbk9cVUte1Oe&#xA;xtEW0RZdRvJBbafE4JRpmVmq9KfBGiNI+/2VNN6YqoaLpkVuRGjmaO1ZzJcvTnPeSV9edqClRUr8&#xA;Owqy0AUYqgJriTUdfuLuIhrXQ/8AQ7Ku6PqV0FSSRgG3WCORY69QXlHbFWRItvZWdGcJBboS8sjA&#xA;UVRVndj97E4qxsC7803gLq9v5etnBWNwUkuZY2qHINGVVI+EdQd/t04KsojjjijWONQkaAKiKAFC&#xA;gUAAHQDFV2KpDrmiam+sWWvaM8Q1G1iktZ7W5LJBc20rK5RpEWR43R4wyMFP7QI3qFVCKLzhOvpR&#xA;RR6RCrlR+/ScqAa1jX0GDRHoELI3uopiqa6NotrpduY4iZJXJaadyWd2JJNSxY9T3JJ6kliSVUo8&#xA;saRq9tFPZ6nBEscd/c3hu43DfWzLcNPC5SlU4h1qCdioAquKrvzFilk8pXJjge5WCezuZ4Iql2gt&#xA;7yGacKAGJ/dI2wG/TFVZ/MeiXzRTaPqEN9dqpEcVpxu6pIVrzWNl4AkL8bsqg9TiqtpWgmK4OoX7&#xA;G4v2ACvIQ5RR03CovLc/YVVHYVLMyqA0nQteg0640e+jsprKa5u5WvGYzSSR3VzJcfHatDHEH/e0&#xA;PxlQd6EbYq7zxp00H5fa5a6ZHWU2U3JAvJ5F4fvQAAeTtGCq0HhTFVQ+adJmlN5o15Z6pLcxRqlt&#xA;FOWkKo7HkEgS4c/3hr8IpTf2VVtP0K6uL1NU1t/WukFLe2oBHCDQ/ZBda1FftNv1ZuKcVVDy7pOq&#xA;RX+qm/h9O3k1Ka8gcur+uGVFhNFZqLGqdHFahafZxVZ+YFzHBp2m/Wfh0ttTtDqcxUskcETmcNIQ&#xA;DxQzRRqxO2+Krm8yQyTTtoU1rrMs5QqLeYzNEvDiob0ldAvIFl9SSNSSdx1xVF6V5fkS5OparKLr&#xA;U22DD7Eag1CqNth2FKD3bk7KoL8vdG1bTvLGk22sRiK+sbVbd4gyv+86yyFkJU8z08B/rEBVZ5o1&#xA;KysvNfl2TVLhbTS4476ZbiaiQC9AhhgVpG+FWaGefjU70OKr11i9nje18vNbXyyySt9fikaWOL1J&#xA;OZ5EJ6PICTp6hYfa4MPhxVNNG0GHTzJPI5ur+Y1mu3HxHoNuvWgr9AFFVVVVj/lfT9f0zyxa+WJt&#xA;NmM2nJ9Xg1X17cW8ghblDPXlLMrMFU8Wgb4tjVd8VZFo2hwaasj8vWu52L3Fy1eTsaCvxFj0Udz0&#xA;A6AAKplirHde03Vp/M2iXtlCHhtob2KacsgELziERyFGPJqBHoFHsaA1xVP4IY4IUijBCIKCpJJ9&#xA;yTuSe5OKsE8oeYdG/wANaQjajbfpxHNzqGnzP6Nwb26DtcRmCjS8/Wnai8N+2Kpwun6tr8kc2qD6&#xA;ppqFWSwTmC7LRg7F1jfr9kuileyBlWTFWSRRRxRrHGoSNAFRFFAAOwxVdirsVf/Z</xmpGImg:image>
               </rdf:li>
            </rdf:Alt>
         </xmp:Thumbnails>
         <xmpTPg:MaxPageSize rdf:parseType="Resource">
            <stDim:w>160.516963</stDim:w>
            <stDim:h>295.422283</stDim:h>
            <stDim:unit>Pixels</stDim:unit>
         </xmpTPg:MaxPageSize>
         <xmpTPg:NPages>1</xmpTPg:NPages>
         <xmpTPg:HasVisibleTransparency>False</xmpTPg:HasVisibleTransparency>
         <xmpTPg:HasVisibleOverprint>False</xmpTPg:HasVisibleOverprint>
         <xmpTPg:Fonts>
            <rdf:Bag>
               <rdf:li rdf:parseType="Resource">
                  <stFnt:fontName>Zapfino</stFnt:fontName>
                  <stFnt:fontFamily>Zapfino</stFnt:fontFamily>
                  <stFnt:fontFace>Regular</stFnt:fontFace>
                  <stFnt:fontType>TrueType</stFnt:fontType>
                  <stFnt:versionString>13.0d1e2</stFnt:versionString>
                  <stFnt:composite>False</stFnt:composite>
                  <stFnt:fontFileName>Zapfino.ttf</stFnt:fontFileName>
               </rdf:li>
            </rdf:Bag>
         </xmpTPg:Fonts>
         <xmpTPg:PlateNames>
            <rdf:Seq>
               <rdf:li>Cyan</rdf:li>
               <rdf:li>Magenta</rdf:li>
               <rdf:li>Yellow</rdf:li>
               <rdf:li>Black</rdf:li>
            </rdf:Seq>
         </xmpTPg:PlateNames>
         <xmpTPg:SwatchGroups>
            <rdf:Seq>
               <rdf:li rdf:parseType="Resource">
                  <xmpG:groupName>Default Swatch Group</xmpG:groupName>
                  <xmpG:groupType>0</xmpG:groupType>
               </rdf:li>
            </rdf:Seq>
         </xmpTPg:SwatchGroups>
      </rdf:Description>
   </rdf:RDF>
</x:xmpmeta>
                                                                                                    
                                                                                                    
                                                                                                    
                                                                                                    
                                                                                                    
                                                                                                    
                                                                                                    
                                                                                                    
                                                                                                    
                                                                                                    
                                                                                                    
                                                                                                    
                                                                                                    
                                                                                                    
                                                                                                    
                                                                                                    
                                                                                                    
                                                                                                    
                                                                                                    
                                                                                                    
                           
<?xpacket end="w"?>
	</metadata>
<g id="Layer_1" class="st0">
	
		<image style="display:inline;overflow:visible;" width="163" height="301" xlink:href="SHNNNlogo.png"  transform="matrix(1 0 0 1 -72.4171 10.2996)">
	</image>
	
		<image style="display:inline;overflow:visible;" width="733" height="469" xlink:href="Shannon.png"  transform="matrix(1 0 0 1 -459.9648 161.2996)">
	</image>
</g>
<g id="Layer_2">
	<g>
		<path class="st1" d="M-355.7,512.9c-1.1,2-1.8,2.2-2,0.6c-0.4-5.1-3-7.7-7.6-7.7c-3.4,0-7.2,1.6-11.3,4.7
			c-4.1,3.2-6.8,7.9-8.1,14.2c-0.7,3.2-0.7,6.3-0.1,9.5c0.6,3.2,1.4,7.3,2.6,12.4c1,4.7,1.8,9.5,2.6,14.2c0.7,4.7,0.6,9.7-0.5,14.8
			c-2.1,10.2-5.3,18.6-9.6,25.1c-4.3,6.5-8.9,11.7-13.8,15.7c-4.9,3.9-9.5,6.6-14,8c-4.5,1.4-7.9,2.1-10.4,2.1
			c-15,0-21.6-8.1-19.7-24.2c1.5-1.2,3.2-2.7,5.2-4.4c2-1.8,3.5-3.4,4.5-5c0.5,0,0.7,0.8,0.6,2.4c-0.2,7.1,0.8,13.2,3.2,18.3
			c2.4,5.1,5.9,7.7,10.6,7.7c2,0,4.4-0.3,7.2-0.9c2.8-0.6,5.6-2,8.4-4.1c2.8-2.2,5.4-5.2,8-9.2c2.5-3.9,4.5-9.2,5.9-16
			c1.1-5.1,1.4-9.8,1.1-14.2c-0.3-4.3-0.9-8.3-1.6-11.8c-0.7-3.9-1.3-7.9-2-11.8c-0.7-3.9-0.5-8.3,0.5-13s3.1-9.8,6.3-15.4
			c3.2-5.5,6.9-10.5,11.1-15.1c4.1-4.5,8.4-8.4,12.9-11.5c4.5-3.1,8.5-4.7,12.2-4.7c3.9,0,5.5,2,4.7,5.9c-1.1,2-2.4,4.2-3.6,6.8
			C-353.7,508.7-354.8,510.9-355.7,512.9z"/>
		<path class="st1" d="M-50.8,234.7c-1.3,6.3-2.5,11-3.5,14.2c-1,3.2-1.8,5.3-2.5,6.5c-0.6,1.2-1,1.5-1.3,0.9
			c-0.2-0.6-0.3-1.3-0.1-2.1c0.6-2.8,0.9-6.5,1-11.2c0.1-4.7-0.6-9.4-2.3-13.9c-1.6-4.5-4.4-8.5-8.4-11.8c-4-3.3-9.6-5-17-5
			c-6.4,0-13.3,1.5-20.7,4.4c-7.4,3-15.9,8.7-25.5,17.1c-9.6,8.5-20.5,20.2-32.6,35.1c-12.1,15-25.9,34.4-41.4,58.2
			c-15.5,23.8-33,52.8-52.5,86.8c-19.5,34.1-41.5,74.3-65.9,120.8c2.2-2.4,5.7-5.9,10.3-10.6c4.7-4.7,9.7-9.5,15.1-14.2
			c5.4-4.7,10.6-8.9,15.5-12.4c4.9-3.5,8.8-5.3,11.8-5.3c2.2,0,3,1.4,2.5,4.1c-0.5,2.4-2.3,5.9-5.5,10.6c-3,4.7-6.9,11.2-11.8,19.5
			c-4.9,8.3-9.9,17.1-14.9,26.6c-5,9.5-9.6,18.7-13.7,27.8c-4.1,9.1-6.7,16.3-7.9,21.9c-1.3,6.3-1.3,11,0,14.2
			c1.3,3.2,3.7,4.7,7.1,4.7c5.7,0,14.9-5.9,27.7-17.7c12.8-11.8,28.8-31.9,47.9-60.3c0.7-0.8,1.2-1.2,1.7-1.2c0.5,0,0.6,0.8,0.2,2.4
			c-6.9,10.6-14.6,21.3-23,31.9c-8.5,10.6-16.9,20.3-25.2,28.9c-8.3,8.7-16.3,15.7-23.9,21c-7.6,5.3-14.1,8-19.5,8
			c-4.2,0-7.1-1.9-8.8-5.6c-1.7-3.7-1.8-9-0.4-15.7c1.3-6.3,4.3-14.4,9.1-24.2c4.7-9.8,9.8-19.8,15.2-29.8
			c5.4-10,10.3-19.3,14.8-27.8c4.5-8.5,7.1-14.5,7.8-18c0.4-2,0.2-3-0.5-3c-2.2,0-6.9,3.4-14.1,10c-7.2,6.7-17,19.3-29.4,37.8
			c-5.5,9.8-11.2,20.1-17.1,30.7c-5.9,10.6-11.1,20.1-15.5,28.4c-3.3,6.3-5.8,9.5-7.5,9.5c-1.2,0-2.7-0.5-4.5-1.5
			c-1.8-1-2.4-2.9-1.8-5.6c0.4-2,1.2-4.1,2.5-6.5c16.6-29.9,32.5-58.2,47.9-84.8c15.4-26.6,30.7-52.7,46.2-78.3
			c17.9-29.5,36.4-59.7,55.5-90.4c19-30.7,37.8-58.7,56.4-83.9c18.5-25.2,36.3-45.8,53.2-61.7s32.3-23.9,46.1-23.9
			c3.4,0,6.9,0.7,10.3,2.1c3.4,1.4,6.4,3.6,9.1,6.8c2.7,3.2,4.4,7.6,5.3,13.3C-48.5,218.3-48.9,225.7-50.8,234.7z"/>
		<path class="st1" d="M-129.5,541.1c-8,11-16.5,22.2-25.6,33.4c-9.1,11.2-18,21.4-26.8,30.4c-8.8,9.1-17.1,16.3-25,21.9
			c-7.9,5.5-14.7,8.3-20.3,8.3c-4.9,0-7.9-2-9.1-5.9c-1.2-3.9-1.1-8.9,0.1-14.8c1.1-5.5,3.7-12.9,7.7-22.2c4-9.2,9.2-19.2,15.6-29.8
			c-4.6,6.7-9.8,13.8-15.5,21.3c-5.7,7.5-11.5,14.3-17.1,20.4c-5.7,6.1-11.2,11.2-16.5,15.4c-5.3,4.1-9.7,6.2-13.1,6.2
			c-5.2,0-6.9-4.1-5.2-12.4c1.9-9.1,6.5-20.5,13.8-34.3c7.3-13.8,16-27.1,26.2-39.9c10.2-12.8,21-23.8,32.5-33.1
			c11.5-9.2,22.4-13.9,32.8-13.9c2-3.9,3.7-6.7,5-8.3c1.3-1.6,2.5-2.7,3.7-3.5l11.3-4.7l0.6,0.6c-1.6,2-3.3,4.4-5,7.4
			c-1.7,3-3.5,6-5.4,9.2c1.2,0,3,0.2,5.4,0.6c2.4,0.4,4.1,0.8,5.3,1.2c1.1,0.8,1.5,1.8,1.2,3c-0.2,1.2-0.7,1.8-1.5,1.8
			c-1.3-0.8-3.4-1.4-6.3-1.8c-2.9-0.4-5-0.6-6.5-0.6c-17.9,31.9-31.5,57.2-40.7,75.9c-9.2,18.7-14.7,32.6-16.6,41.6
			c-0.7,3.5-0.8,6.5-0.2,8.9c0.6,2.4,2.6,3.5,6.1,3.5c3.9,0,9.1-2.3,15.4-6.8c6.3-4.5,13.4-10.8,21.3-18.9
			c7.8-8.1,16.1-17.4,24.8-28.1c8.7-10.6,17.3-21.9,25.6-33.7c0.7-1.2,1.3-1.5,1.7-0.9C-129.3,539-129.2,539.9-129.5,541.1z
			 M-177.7,496.2c-8.4,0-17.3,4.7-26.9,14.2c-9.6,9.5-18.7,20.6-27.2,33.4c-8.6,12.8-15.9,25.5-22.1,38.1
			c-6.2,12.6-9.9,21.9-11.1,27.8c-0.7,3.2-0.2,4.7,1.2,4.7c1.5,0,4.1-1.6,7.8-4.7c3.7-3.1,8.1-7.4,13.2-12.7
			c5-5.3,10.3-11.5,15.9-18.6c5.5-7.1,10.9-14.8,16-23c5.9-9.5,11.8-19.5,17.7-30.1c5.9-10.6,11.2-20.1,15.9-28.4L-177.7,496.2z"/>
		<path class="st1" d="M-40.4,550.8c-6.5,9.8-13.6,19.8-21.5,29.8c-7.9,10-15.9,19-24,26.9c-8.2,7.9-16.1,14.4-24,19.5
			c-7.8,5.1-14.9,7.7-21.3,7.7c-2.9,0-5.5-0.7-7.7-2.1c-2.2-1.4-2.7-4.8-1.5-10.3c1.1-5.5,3.8-12.5,8.1-21c4.2-8.5,9-17.4,14.3-26.9
			c5.3-9.5,10.7-19.1,16.3-28.9c5.6-9.8,10.4-18.9,14.3-27.2c0.9-2,1.3-3.6,1.2-5c-0.1-1.4-0.9-1.5-2.3-0.3
			c-3.3,2.8-7.3,6.5-11.9,11.2c-4.7,4.7-9.5,9.7-14.4,15.1c-4.9,5.3-9.7,10.7-14.4,16.2c-4.7,5.5-8.6,10.4-11.7,14.8
			c-6,9.8-11.3,18.9-15.8,27.2c-4.5,8.3-10,17.5-16.3,27.8c-1.5,2.4-2.5,3.5-3,3.5c-1.2,0-1.8-2.2-1.8-6.5c0-4.3,0.2-7.1,0.4-8.3
			c0.7-3.5,3.3-8.4,7.6-14.5c4.3-6.1,9.1-12.9,14.4-20.4c6.6-12.6,13.4-25.9,20.5-39.9c7.1-14,13.3-26.5,18.5-37.5
			c1.1-2,2.5-3,3.9-3c1.5,0,2.6,1,3.4,3c0.8,2,1,4.1,0.5,6.5c-0.3,1.6-3.2,7-8.7,16.2c-5.5,9.3-11.2,20-17.2,32.2
			c6.1-6.7,12.6-13.8,19.7-21.3c7.1-7.5,13.8-14.4,20.2-20.7c6.3-6.3,11.9-11.5,16.5-15.7c4.7-4.1,7.7-6.2,9.2-6.2
			c1,0,1.7,0.9,2.2,2.7c0.5,1.8,0.6,3.5,0.2,5c-0.3,1.6-1.4,3.9-3.3,7.1c-4,6.3-9,14.4-15,24.2c-6,9.8-11.8,20-17.6,30.4
			c-5.7,10.4-10.8,20.4-15.2,29.8c-4.4,9.5-7.2,16.9-8.4,22.4c-1,4.7-1,8-0.2,9.7c0.9,1.8,2.6,2.7,5.3,2.7c4.2,0,9.6-2.6,16.3-7.7
			c6.7-5.1,13.9-11.5,21.5-19.2c7.6-7.7,15.1-16.2,22.5-25.7c7.4-9.5,13.7-18.5,18.9-27.2c0.7-1.2,1.5-1.5,2.4-0.9
			C-38.3,547-38.7,548.4-40.4,550.8z"/>
		<path class="st1" d="M55.8,550.8c-6.5,9.8-13.6,19.8-21.5,29.8c-7.9,10-15.9,19-24,26.9c-8.2,7.9-16.1,14.4-24,19.5
			c-7.8,5.1-14.9,7.7-21.3,7.7c-2.9,0-5.5-0.7-7.7-2.1c-2.2-1.4-2.7-4.8-1.5-10.3c1.1-5.5,3.8-12.5,8.1-21c4.2-8.5,9-17.4,14.3-26.9
			c5.3-9.5,10.7-19.1,16.3-28.9c5.6-9.8,10.4-18.9,14.3-27.2c0.9-2,1.3-3.6,1.2-5c-0.1-1.4-0.9-1.5-2.3-0.3
			c-3.3,2.8-7.3,6.5-11.9,11.2c-4.7,4.7-9.5,9.7-14.4,15.1c-4.9,5.3-9.7,10.7-14.4,16.2c-4.7,5.5-8.6,10.4-11.7,14.8
			c-6,9.8-11.3,18.9-15.8,27.2c-4.5,8.3-10,17.5-16.3,27.8c-1.5,2.4-2.5,3.5-3,3.5c-1.2,0-1.8-2.2-1.8-6.5c0-4.3,0.2-7.1,0.4-8.3
			c0.7-3.5,3.3-8.4,7.6-14.5c4.3-6.1,9.1-12.9,14.4-20.4c6.6-12.6,13.4-25.9,20.5-39.9c7.1-14,13.3-26.5,18.5-37.5
			c1.1-2,2.5-3,3.9-3c1.5,0,2.6,1,3.4,3c0.8,2,1,4.1,0.5,6.5c-0.3,1.6-3.2,7-8.7,16.2c-5.5,9.3-11.2,20-17.2,32.2
			c6.1-6.7,12.6-13.8,19.7-21.3c7.1-7.5,13.8-14.4,20.2-20.7c6.3-6.3,11.9-11.5,16.5-15.7c4.7-4.1,7.7-6.2,9.2-6.2
			c1,0,1.7,0.9,2.2,2.7c0.5,1.8,0.6,3.5,0.2,5c-0.3,1.6-1.4,3.9-3.3,7.1c-4,6.3-9,14.4-15,24.2c-6,9.8-11.8,20-17.6,30.4
			c-5.7,10.4-10.8,20.4-15.2,29.8c-4.4,9.5-7.2,16.9-8.4,22.4c-1,4.7-1,8-0.2,9.7c0.9,1.8,2.6,2.7,5.3,2.7c4.2,0,9.6-2.6,16.3-7.7
			c6.7-5.1,13.9-11.5,21.5-19.2c7.6-7.7,15.1-16.2,22.5-25.7c7.4-9.5,13.7-18.5,18.9-27.2c0.7-1.2,1.5-1.5,2.4-0.9
			C58,547,57.5,548.4,55.8,550.8z"/>
		<path class="st1" d="M162.7,523.6c-6.1,9.1-12.9,17.2-20.4,24.5c-7.5,7.3-15.1,10.9-22.7,10.9c-4.2,0-7.9-1.7-11.3-5
			c-3.4-3.3-5.6-8.4-6.6-15.1c-3,6.3-6.7,13.5-11.1,21.6c-4.4,8.1-9.3,16.2-14.6,24.2c-5.4,8.1-11,15.5-17,22.2
			c-5.9,6.7-11.9,12.2-18,16.5c-5.1,3.1-9.1,4.7-12,4.7c-8.9,0-12-6.3-9.3-18.9c1.5-7.1,3.8-14.4,6.9-21.9
			c3.2-7.5,6.7-14.8,10.6-21.9c3.9-7.1,8-13.8,12.1-20.1c4.1-6.3,7.8-11.4,11.1-15.4c7-9.1,14.5-16.7,22.5-23
			c7.9-6.3,15.9-10,23.7-11.2c1.1-3.1,2.6-6.8,4.5-10.9c1.8-4.1,4.1-6.6,6.7-7.4c1.3-0.4,2.6-0.8,3.9-1.2c1.3-0.4,2.5-1,3.7-1.8
			c0.9-0.8,1.7-0.9,2.3-0.3c0.6,0.6,0.5,1.7-0.3,3.2c-2.6,4.3-5.1,9.8-7.3,16.5c-2.3,6.7-4.2,14-5.8,21.9c-2.3,11-2.9,20.1-1.8,27.2
			c1.1,7.1,4.9,10.6,11.2,10.6c6.4,0,12.9-3.3,19.4-10c6.6-6.7,12.4-14,17.5-21.9c0.9-2,1.8-2.6,2.8-1.8
			C164.2,520.8,164,522,162.7,523.6z M101,527.7c0.2-3.5,0.7-7.7,1.5-12.4c0.7-4.7,1.6-9.2,2.5-13.6c0.4-2,0.1-3-0.9-3
			c-2.7,0-5.8,1.5-9.4,4.4c-3.6,3-7.3,6.9-11.3,11.8c-4,4.9-8.1,10.5-12.4,16.8c-4.3,6.3-8.3,12.8-12.2,19.5
			c-5,8.7-9.8,18-14.5,28.1c-4.7,10-7.8,19.6-9.5,28.7c-0.6,2.8-0.8,5.3-0.7,7.7c0.1,2.4,1.3,3.5,3.5,3.5c4.2,0,9.5-3.7,16-11.2
			c6.5-7.5,13-16.2,19.5-26.3c6.5-10,12.4-20.2,17.6-30.4C96,541.1,99.4,533.2,101,527.7z"/>
		<path class="st1" d="M244.2,550.8c-6.5,9.8-13.6,19.8-21.5,29.8c-7.9,10-15.9,19-24,26.9c-8.2,7.9-16.1,14.4-24,19.5
			c-7.8,5.1-14.9,7.7-21.3,7.7c-2.9,0-5.5-0.7-7.7-2.1c-2.2-1.4-2.7-4.8-1.5-10.3c1.1-5.5,3.8-12.5,8.1-21c4.2-8.5,9-17.4,14.3-26.9
			c5.3-9.5,10.7-19.1,16.3-28.9c5.6-9.8,10.4-18.9,14.3-27.2c0.9-2,1.3-3.6,1.2-5c-0.1-1.4-0.9-1.5-2.3-0.3
			c-3.3,2.8-7.3,6.5-11.9,11.2c-4.7,4.7-9.5,9.7-14.4,15.1c-4.9,5.3-9.7,10.7-14.4,16.2c-4.7,5.5-8.6,10.4-11.7,14.8
			c-6,9.8-11.3,18.9-15.8,27.2c-4.5,8.3-10,17.5-16.3,27.8c-1.5,2.4-2.5,3.5-3,3.5c-1.2,0-1.8-2.2-1.8-6.5c0-4.3,0.2-7.1,0.4-8.3
			c0.7-3.5,3.3-8.4,7.6-14.5c4.3-6.1,9.1-12.9,14.4-20.4c6.6-12.6,13.4-25.9,20.5-39.9c7.1-14,13.3-26.5,18.5-37.5
			c1.1-2,2.5-3,3.9-3s2.6,1,3.4,3c0.8,2,1,4.1,0.5,6.5c-0.3,1.6-3.2,7-8.7,16.2c-5.5,9.3-11.2,20-17.2,32.2
			c6.1-6.7,12.6-13.8,19.7-21.3c7.1-7.5,13.8-14.4,20.2-20.7c6.3-6.3,11.9-11.5,16.5-15.7c4.7-4.1,7.7-6.2,9.2-6.2
			c1,0,1.7,0.9,2.2,2.7c0.5,1.8,0.6,3.5,0.2,5c-0.3,1.6-1.4,3.9-3.3,7.1c-4,6.3-9,14.4-15,24.2c-6,9.8-11.8,20-17.6,30.4
			c-5.7,10.4-10.8,20.4-15.2,29.8c-4.4,9.5-7.2,16.9-8.4,22.4c-1,4.7-1,8-0.2,9.7c0.9,1.8,2.6,2.7,5.3,2.7c4.2,0,9.6-2.6,16.3-7.7
			c6.7-5.1,13.9-11.5,21.5-19.2c7.6-7.7,15.1-16.2,22.5-25.7c7.4-9.5,13.7-18.5,18.9-27.2c0.7-1.2,1.5-1.5,2.4-0.9
			C246.4,547,246,548.4,244.2,550.8z"/>
	</g>
	<text transform="matrix(1 0 0 1 -459.3172 -86.1006)" class="st2" style="font-family:'Zapfino'; font-size:72px;">‘</text>
	<g>
		<path class="st1" d="M-203.5,76c1.5,7.2,3.2,14.8,5.2,22.8c2,8,4.5,16,7.6,24c3.1,8.1,6.8,16,11.2,23.7c4.4,7.8,9.7,15.1,16,21.9
			c3.7,4.1,7.7,7.6,11.8,10.7c4.2,3.1,8,5,11.5,5.8c1.6,0.3,2.8,0.8,3.7,1.8c0.3,0.3,0.9,1.5,1.7,3.6c0.9,2.1,1.6,4.3,2.2,6.6
			c0.6,2.3,1.1,4.6,1.5,6.7s0.4,3.5-0.2,4c-0.7,0.7-3.5,0-8.2-1.9c-4.7-2-11.1-7.3-19.1-16c-7.4-8.1-15.9-21.6-25.4-40.4
			c-9.5-18.8-17.6-43.5-24.3-74c0-1.1,0.6-1.5,1.8-1.2C-205.4,74.4-204.3,75.1-203.5,76z"/>
	</g>
	<g>
		<path class="st3" d="M-203.5,75.8c1.6,7,3.4,14.4,5.5,22.2c2.1,7.7,4.7,15.6,7.8,23.5c3.2,7.9,6.9,15.7,11.3,23.4
			c4.4,7.7,9.6,15,15.8,21.9c3.6,4.1,7.5,7.7,11.5,10.9c4.1,3.2,7.8,5.2,11.1,6.2c1.5,0.3,2.7,1,3.6,1.9c0.3,0.3,0.9,1.5,1.7,3.5
			c0.9,2,1.6,4.2,2.2,6.5c0.6,2.3,1.2,4.5,1.6,6.6s0.5,3.4-0.1,3.9c-0.7,0.6-3.3-0.1-7.9-2.3c-4.6-2.1-10.7-7.6-18.6-16.4
			c-7.3-8.2-15.7-21.5-25.2-40.1c-9.5-18.6-17.9-42.7-25.1-72.4c0-1.1,0.5-1.4,1.6-1C-205.3,74.2-204.3,74.9-203.5,75.8z"/>
	</g>
	<g>
		<g>
			<g>
				<path class="st1" d="M6.5,29c1.5,7.2,3.3,14.8,5.3,22.7c2,7.9,4.6,15.9,7.8,23.9c3.2,8,6.9,15.9,11.4,23.6
					c4.4,7.7,9.8,15,16.1,21.8c3.7,4,7.7,7.5,11.9,10.6c4.2,3,8,4.9,11.5,5.7c1.6,0.2,2.8,0.8,3.7,1.7c0.3,0.3,0.9,1.5,1.8,3.6
					c0.9,2.1,1.6,4.3,2.2,6.6c0.6,2.3,1.1,4.6,1.6,6.7s0.4,3.5-0.1,4c-0.7,0.7-3.5,0.1-8.2-1.9c-4.7-1.9-11.1-7.2-19.2-15.9
					c-7.5-8-16.1-21.4-25.7-40.2C17,83.3,8.7,58.7,1.7,28.3c0-1.1,0.6-1.5,1.7-1.2C4.7,27.4,5.7,28,6.5,29z"/>
			</g>
			<g>
				<path class="st3" d="M6.5,28.3c1.7,7,3.6,14.4,5.7,22.1c2.1,7.7,4.8,15.5,8,23.4c3.2,7.9,7,15.6,11.4,23.3
					c4.4,7.6,9.7,14.9,15.9,21.8c3.7,4.1,7.5,7.6,11.6,10.8c4.1,3.1,7.8,5.2,11.1,6.1c1.5,0.3,2.7,0.9,3.6,1.9
					c0.3,0.3,0.9,1.5,1.8,3.5c0.9,2,1.7,4.2,2.3,6.4c0.6,2.3,1.2,4.4,1.7,6.5c0.5,2.1,0.5,3.4,0,3.9c-0.7,0.6-3.3-0.1-7.9-2.2
					c-4.6-2.1-10.8-7.5-18.7-16.3c-7.3-8.1-15.9-21.4-25.5-39.9C17.8,81,9.3,57,1.9,27.4c0-1.1,0.5-1.4,1.6-1.1
					C4.7,26.7,5.6,27.4,6.5,28.3z"/>
			</g>
		</g>
		<g>
			<g>
				<path class="st1" d="M25.2,4.2c1.5,7.2,3.3,14.8,5.3,22.7c2,7.9,4.6,15.9,7.8,23.9c3.2,8,6.9,15.9,11.4,23.6
					c4.4,7.7,9.8,15,16.1,21.8c3.7,4,7.7,7.5,11.9,10.6c4.2,3,8,4.9,11.5,5.7c1.6,0.2,2.8,0.8,3.7,1.7c0.3,0.3,0.9,1.5,1.8,3.6
					c0.9,2.1,1.6,4.3,2.2,6.6c0.6,2.3,1.1,4.6,1.6,6.7s0.4,3.5-0.1,4c-0.7,0.7-3.5,0.1-8.2-1.9c-4.7-1.9-11.1-7.2-19.2-15.9
					c-7.5-8-16.1-21.4-25.7-40.2C35.6,58.6,27.3,34,20.4,3.5c0-1.1,0.6-1.5,1.7-1.2C23.3,2.6,24.4,3.3,25.2,4.2z"/>
			</g>
			<g>
				<path class="st3" d="M25.2,3.5c1.7,7,3.6,14.4,5.7,22.1c2.1,7.7,4.8,15.5,8,23.4c3.2,7.9,7,15.6,11.4,23.3
					c4.4,7.6,9.7,14.9,15.9,21.8c3.7,4.1,7.5,7.6,11.6,10.8c4.1,3.1,7.8,5.2,11.1,6.1c1.5,0.3,2.7,0.9,3.6,1.9
					c0.3,0.3,0.9,1.5,1.8,3.5c0.9,2,1.7,4.2,2.3,6.4c0.6,2.3,1.2,4.4,1.7,6.5c0.5,2.1,0.5,3.4,0,3.9c-0.7,0.6-3.3-0.1-7.9-2.2
					c-4.6-2.1-10.8-7.5-18.7-16.3c-7.3-8.1-15.9-21.4-25.5-39.9C36.5,56.3,28,32.2,20.6,2.6c0-1.1,0.5-1.4,1.6-1.1
					C23.3,1.9,24.3,2.6,25.2,3.5z"/>
			</g>
		</g>
	</g>
	<g>
		<g>
			<path d="M154.1,268.5c-1.7-6.9-3.6-14.2-5.8-21.8c-2.2-7.6-4.9-15.3-8.1-23.1c-3.2-7.8-7.1-15.5-11.5-23
				c-4.4-7.6-9.7-14.8-15.9-21.6c-3.6-4-7.5-7.6-11.5-10.7c-4-3.1-7.7-5.2-11-6.1c-1.5-0.3-2.7-1-3.5-1.9c-0.3-0.3-0.9-1.5-1.8-3.5
				c-0.9-2-1.7-4.1-2.3-6.4c-0.7-2.2-1.2-4.4-1.7-6.5c-0.5-2.1-0.5-3.3,0-3.8c0.7-0.6,3.3,0.1,7.8,2.3c4.5,2.1,10.7,7.5,18.5,16.2
				c7.3,8.1,15.8,21.2,25.5,39.5c9.7,18.3,18.3,42,25.9,71.2c0.1,1.1-0.5,1.4-1.6,1C156,270.1,155,269.4,154.1,268.5z"/>
		</g>
		<g>
			<path class="st3" d="M154.1,267.8c-1.5-7.2-3.3-14.8-5.3-22.7c-2-7.9-4.6-15.9-7.8-23.9c-3.2-8-6.9-15.9-11.4-23.6
				c-4.4-7.7-9.8-15-16.1-21.8c-3.7-4-7.7-7.5-11.9-10.6c-4.2-3-8-4.9-11.5-5.7c-1.6-0.2-2.8-0.8-3.7-1.7c-0.3-0.3-0.9-1.5-1.8-3.6
				c-0.9-2.1-1.6-4.3-2.2-6.6c-0.6-2.3-1.1-4.6-1.6-6.7s-0.4-3.5,0.1-4c0.7-0.7,3.5-0.1,8.2,1.9c4.7,1.9,11.1,7.2,19.2,15.9
				c7.5,8,16.1,21.4,25.7,40.2c9.7,18.7,17.9,43.3,24.9,73.8c0,1.1-0.6,1.5-1.7,1.2C156,269.4,154.9,268.7,154.1,267.8z"/>
		</g>
	</g>
	<g>
		<g>
			<path d="M136.4,293.3c-1.7-6.9-3.6-14.2-5.8-21.8c-2.2-7.6-4.9-15.3-8.1-23.1c-3.2-7.8-7.1-15.5-11.5-23
				c-4.4-7.6-9.7-14.8-15.9-21.6c-3.6-4-7.5-7.6-11.5-10.7c-4-3.1-7.7-5.2-11-6.1c-1.5-0.3-2.7-1-3.5-1.9c-0.3-0.3-0.9-1.5-1.8-3.5
				c-0.9-2-1.7-4.1-2.3-6.4c-0.7-2.2-1.2-4.4-1.7-6.5c-0.5-2.1-0.5-3.3,0-3.8c0.7-0.6,3.3,0.1,7.8,2.3c4.5,2.1,10.7,7.5,18.5,16.2
				c7.3,8.1,15.8,21.2,25.5,39.5c9.7,18.3,18.3,42,25.9,71.2c0.1,1.1-0.5,1.4-1.6,1C138.2,294.9,137.2,294.2,136.4,293.3z"/>
		</g>
		<g>
			<path class="st3" d="M136.3,292.6c-1.5-7.2-3.3-14.8-5.3-22.7c-2-7.9-4.6-15.9-7.8-23.9c-3.2-8-6.9-15.9-11.4-23.6
				c-4.4-7.7-9.8-15-16.1-21.8c-3.7-4-7.7-7.5-11.9-10.6c-4.2-3-8-4.9-11.5-5.7c-1.6-0.2-2.8-0.8-3.7-1.7c-0.3-0.3-0.9-1.5-1.8-3.6
				c-0.9-2.1-1.6-4.3-2.2-6.6c-0.6-2.3-1.1-4.6-1.6-6.7c-0.5-2.2-0.4-3.5,0.1-4c0.7-0.7,3.5-0.1,8.2,1.9c4.7,1.9,11.1,7.2,19.2,15.9
				c7.5,8,16.1,21.4,25.7,40.2c9.7,18.7,17.9,43.3,24.9,73.8c0,1.1-0.6,1.5-1.7,1.2C138.2,294.1,137.2,293.5,136.3,292.6z"/>
		</g>
	</g>
	<g>
		<path class="st3" d="M-353.7,511.9c-1.1,2-1.8,2.2-2,0.6c-0.4-5.1-3-7.7-7.6-7.7c-3.4,0-7.2,1.6-11.3,4.7
			c-4.1,3.2-6.8,7.9-8.1,14.2c-0.7,3.2-0.7,6.3-0.1,9.5c0.6,3.2,1.4,7.3,2.6,12.4c1,4.7,1.8,9.5,2.6,14.2c0.7,4.7,0.6,9.7-0.5,14.8
			c-2.1,10.2-5.3,18.6-9.6,25.1c-4.3,6.5-8.9,11.7-13.8,15.7c-4.9,3.9-9.5,6.6-14,8c-4.5,1.4-7.9,2.1-10.4,2.1
			c-15,0-21.6-8.1-19.7-24.2c1.5-1.2,3.2-2.7,5.2-4.4c2-1.8,3.5-3.4,4.5-5c0.5,0,0.7,0.8,0.6,2.4c-0.2,7.1,0.8,13.2,3.2,18.3
			c2.4,5.1,5.9,7.7,10.6,7.7c2,0,4.4-0.3,7.2-0.9c2.8-0.6,5.6-2,8.4-4.1c2.8-2.2,5.4-5.2,8-9.2c2.5-3.9,4.5-9.2,5.9-16
			c1.1-5.1,1.4-9.8,1.1-14.2c-0.3-4.3-0.9-8.3-1.6-11.8c-0.7-3.9-1.3-7.9-2-11.8c-0.7-3.9-0.5-8.3,0.5-13s3.1-9.8,6.3-15.4
			c3.2-5.5,6.9-10.5,11.1-15.1c4.1-4.5,8.4-8.4,12.9-11.5c4.5-3.1,8.5-4.7,12.2-4.7c3.9,0,5.5,2,4.7,5.9c-1.1,2-2.4,4.2-3.6,6.8
			C-351.7,507.7-352.8,509.9-353.7,511.9z"/>
		<path class="st3" d="M-48.8,233.7c-1.3,6.3-2.5,11-3.5,14.2c-1,3.2-1.8,5.3-2.5,6.5c-0.6,1.2-1,1.5-1.3,0.9
			c-0.2-0.6-0.3-1.3-0.1-2.1c0.6-2.8,0.9-6.5,1-11.2c0.1-4.7-0.6-9.4-2.3-13.9c-1.6-4.5-4.4-8.5-8.4-11.8c-4-3.3-9.6-5-17-5
			c-6.4,0-13.3,1.5-20.7,4.4c-7.4,3-15.9,8.7-25.5,17.1c-9.6,8.5-20.5,20.2-32.6,35.1c-12.1,15-25.9,34.4-41.4,58.2
			c-15.5,23.8-33,52.8-52.5,86.8c-19.5,34.1-41.5,74.3-65.9,120.8c2.2-2.4,5.7-5.9,10.3-10.6c4.7-4.7,9.7-9.5,15.1-14.2
			c5.4-4.7,10.6-8.9,15.5-12.4c4.9-3.5,8.8-5.3,11.8-5.3c2.2,0,3,1.4,2.5,4.1c-0.5,2.4-2.3,5.9-5.5,10.6c-3,4.7-6.9,11.2-11.8,19.5
			c-4.9,8.3-9.9,17.1-14.9,26.6c-5,9.5-9.6,18.7-13.7,27.8c-4.1,9.1-6.7,16.3-7.9,21.9c-1.3,6.3-1.3,11,0,14.2
			c1.3,3.2,3.7,4.7,7.1,4.7c5.7,0,14.9-5.9,27.7-17.7c12.8-11.8,28.8-31.9,47.9-60.3c0.7-0.8,1.2-1.2,1.7-1.2c0.5,0,0.6,0.8,0.2,2.4
			c-6.9,10.6-14.6,21.3-23,31.9c-8.5,10.6-16.9,20.3-25.2,28.9c-8.3,8.7-16.3,15.7-23.9,21c-7.6,5.3-14.1,8-19.5,8
			c-4.2,0-7.1-1.9-8.8-5.6c-1.7-3.7-1.8-9-0.4-15.7c1.3-6.3,4.3-14.4,9.1-24.2c4.7-9.8,9.8-19.8,15.2-29.8
			c5.4-10,10.3-19.3,14.8-27.8c4.5-8.5,7.1-14.5,7.8-18c0.4-2,0.2-3-0.5-3c-2.2,0-6.9,3.4-14.1,10c-7.2,6.7-17,19.3-29.4,37.8
			c-5.5,9.8-11.2,20.1-17.1,30.7c-5.9,10.6-11.1,20.1-15.5,28.4c-3.3,6.3-5.8,9.5-7.5,9.5c-1.2,0-2.7-0.5-4.5-1.5
			c-1.8-1-2.4-2.9-1.8-5.6c0.4-2,1.2-4.1,2.5-6.5c16.6-29.9,32.5-58.2,47.9-84.8c15.4-26.6,30.7-52.7,46.2-78.3
			c17.9-29.5,36.4-59.7,55.5-90.4c19-30.7,37.8-58.7,56.4-83.9c18.5-25.2,36.3-45.8,53.2-61.7s32.3-23.9,46.1-23.9
			c3.4,0,6.9,0.7,10.3,2.1c3.4,1.4,6.4,3.6,9.1,6.8c2.7,3.2,4.4,7.6,5.3,13.3C-46.5,217.3-46.9,224.7-48.8,233.7z"/>
		<path class="st3" d="M-127.5,540.1c-8,11-16.5,22.2-25.6,33.4c-9.1,11.2-18,21.4-26.8,30.4c-8.8,9.1-17.1,16.3-25,21.9
			c-7.9,5.5-14.7,8.3-20.3,8.3c-4.9,0-7.9-2-9.1-5.9c-1.2-3.9-1.1-8.9,0.1-14.8c1.1-5.5,3.7-12.9,7.7-22.2c4-9.2,9.2-19.2,15.6-29.8
			c-4.6,6.7-9.8,13.8-15.5,21.3c-5.7,7.5-11.5,14.3-17.1,20.4c-5.7,6.1-11.2,11.2-16.5,15.4c-5.3,4.1-9.7,6.2-13.1,6.2
			c-5.2,0-6.9-4.1-5.2-12.4c1.9-9.1,6.5-20.5,13.8-34.3c7.3-13.8,16-27.1,26.2-39.9c10.2-12.8,21-23.8,32.5-33.1
			c11.5-9.2,22.4-13.9,32.8-13.9c2-3.9,3.7-6.7,5-8.3c1.3-1.6,2.5-2.7,3.7-3.5l11.3-4.7l0.6,0.6c-1.6,2-3.3,4.4-5,7.4
			c-1.7,3-3.5,6-5.4,9.2c1.2,0,3,0.2,5.4,0.6c2.4,0.4,4.1,0.8,5.3,1.2c1.1,0.8,1.5,1.8,1.2,3c-0.2,1.2-0.7,1.8-1.5,1.8
			c-1.3-0.8-3.4-1.4-6.3-1.8c-2.9-0.4-5-0.6-6.5-0.6c-17.9,31.9-31.5,57.2-40.7,75.9c-9.2,18.7-14.7,32.6-16.6,41.6
			c-0.7,3.5-0.8,6.5-0.2,8.9c0.6,2.4,2.6,3.5,6.1,3.5c3.9,0,9.1-2.3,15.4-6.8c6.3-4.5,13.4-10.8,21.3-18.9
			c7.8-8.1,16.1-17.4,24.8-28.1c8.7-10.6,17.3-21.9,25.6-33.7c0.7-1.2,1.3-1.5,1.7-0.9C-127.3,538-127.2,538.9-127.5,540.1z
			 M-175.7,495.2c-8.4,0-17.3,4.7-26.9,14.2c-9.6,9.5-18.7,20.6-27.2,33.4c-8.6,12.8-15.9,25.5-22.1,38.1
			c-6.2,12.6-9.9,21.9-11.1,27.8c-0.7,3.2-0.2,4.7,1.2,4.7c1.5,0,4.1-1.6,7.8-4.7c3.7-3.1,8.1-7.4,13.2-12.7
			c5-5.3,10.3-11.5,15.9-18.6c5.5-7.1,10.9-14.8,16-23c5.9-9.5,11.8-19.5,17.7-30.1c5.9-10.6,11.2-20.1,15.9-28.4L-175.7,495.2z"/>
		<path class="st3" d="M-38.4,549.8c-6.5,9.8-13.6,19.8-21.5,29.8c-7.9,10-15.9,19-24,26.9c-8.2,7.9-16.1,14.4-24,19.5
			c-7.8,5.1-14.9,7.7-21.3,7.7c-2.9,0-5.5-0.7-7.7-2.1c-2.2-1.4-2.7-4.8-1.5-10.3c1.1-5.5,3.8-12.5,8.1-21c4.2-8.5,9-17.4,14.3-26.9
			c5.3-9.5,10.7-19.1,16.3-28.9c5.6-9.8,10.4-18.9,14.3-27.2c0.9-2,1.3-3.6,1.2-5c-0.1-1.4-0.9-1.5-2.3-0.3
			c-3.3,2.8-7.3,6.5-11.9,11.2c-4.7,4.7-9.5,9.7-14.4,15.1c-4.9,5.3-9.7,10.7-14.4,16.2c-4.7,5.5-8.6,10.4-11.7,14.8
			c-6,9.8-11.3,18.9-15.8,27.2c-4.5,8.3-10,17.5-16.3,27.8c-1.5,2.4-2.5,3.5-3,3.5c-1.2,0-1.8-2.2-1.8-6.5c0-4.3,0.2-7.1,0.4-8.3
			c0.7-3.5,3.3-8.4,7.6-14.5c4.3-6.1,9.1-12.9,14.4-20.4c6.6-12.6,13.4-25.9,20.5-39.9c7.1-14,13.3-26.5,18.5-37.5
			c1.1-2,2.5-3,3.9-3c1.5,0,2.6,1,3.4,3c0.8,2,1,4.1,0.5,6.5c-0.3,1.6-3.2,7-8.7,16.2c-5.5,9.3-11.2,20-17.2,32.2
			c6.1-6.7,12.6-13.8,19.7-21.3c7.1-7.5,13.8-14.4,20.2-20.7c6.3-6.3,11.9-11.5,16.5-15.7c4.7-4.1,7.7-6.2,9.2-6.2
			c1,0,1.7,0.9,2.2,2.7c0.5,1.8,0.6,3.5,0.2,5c-0.3,1.6-1.4,3.9-3.3,7.1c-4,6.3-9,14.4-15,24.2c-6,9.8-11.8,20-17.6,30.4
			c-5.7,10.4-10.8,20.4-15.2,29.8c-4.4,9.5-7.2,16.9-8.4,22.4c-1,4.7-1,8-0.2,9.7c0.9,1.8,2.6,2.7,5.3,2.7c4.2,0,9.6-2.6,16.3-7.7
			c6.7-5.1,13.9-11.5,21.5-19.2c7.6-7.7,15.1-16.2,22.5-25.7c7.4-9.5,13.7-18.5,18.9-27.2c0.7-1.2,1.5-1.5,2.4-0.9
			C-36.3,546-36.7,547.4-38.4,549.8z"/>
		<path class="st3" d="M57.8,549.8c-6.5,9.8-13.6,19.8-21.5,29.8c-7.9,10-15.9,19-24,26.9c-8.2,7.9-16.1,14.4-24,19.5
			c-7.8,5.1-14.9,7.7-21.3,7.7c-2.9,0-5.5-0.7-7.7-2.1c-2.2-1.4-2.7-4.8-1.5-10.3c1.1-5.5,3.8-12.5,8.1-21c4.2-8.5,9-17.4,14.3-26.9
			c5.3-9.5,10.7-19.1,16.3-28.9c5.6-9.8,10.4-18.9,14.3-27.2c0.9-2,1.3-3.6,1.2-5c-0.1-1.4-0.9-1.5-2.3-0.3
			c-3.3,2.8-7.3,6.5-11.9,11.2c-4.7,4.7-9.5,9.7-14.4,15.1c-4.9,5.3-9.7,10.7-14.4,16.2c-4.7,5.5-8.6,10.4-11.7,14.8
			c-6,9.8-11.3,18.9-15.8,27.2c-4.5,8.3-10,17.5-16.3,27.8c-1.5,2.4-2.5,3.5-3,3.5c-1.2,0-1.8-2.2-1.8-6.5c0-4.3,0.2-7.1,0.4-8.3
			c0.7-3.5,3.3-8.4,7.6-14.5c4.3-6.1,9.1-12.9,14.4-20.4c6.6-12.6,13.4-25.9,20.5-39.9c7.1-14,13.3-26.5,18.5-37.5
			c1.1-2,2.5-3,3.9-3c1.5,0,2.6,1,3.4,3c0.8,2,1,4.1,0.5,6.5c-0.3,1.6-3.2,7-8.7,16.2c-5.5,9.3-11.2,20-17.2,32.2
			c6.1-6.7,12.6-13.8,19.7-21.3c7.1-7.5,13.8-14.4,20.2-20.7c6.3-6.3,11.9-11.5,16.5-15.7c4.7-4.1,7.7-6.2,9.2-6.2
			c1,0,1.7,0.9,2.2,2.7c0.5,1.8,0.6,3.5,0.2,5c-0.3,1.6-1.4,3.9-3.3,7.1c-4,6.3-9,14.4-15,24.2c-6,9.8-11.8,20-17.6,30.4
			c-5.7,10.4-10.8,20.4-15.2,29.8c-4.4,9.5-7.2,16.9-8.4,22.4c-1,4.7-1,8-0.2,9.7c0.9,1.8,2.6,2.7,5.3,2.7c4.2,0,9.6-2.6,16.3-7.7
			c6.7-5.1,13.9-11.5,21.5-19.2c7.6-7.7,15.1-16.2,22.5-25.7c7.4-9.5,13.7-18.5,18.9-27.2c0.7-1.2,1.5-1.5,2.4-0.9
			C60,546,59.5,547.4,57.8,549.8z"/>
		<path class="st3" d="M164.7,522.6c-6.1,9.1-12.9,17.2-20.4,24.5c-7.5,7.3-15.1,10.9-22.7,10.9c-4.2,0-7.9-1.7-11.3-5
			c-3.4-3.3-5.6-8.4-6.6-15.1c-3,6.3-6.7,13.5-11.1,21.6c-4.4,8.1-9.3,16.2-14.6,24.2c-5.4,8.1-11,15.5-17,22.2
			c-5.9,6.7-11.9,12.2-18,16.5c-5.1,3.1-9.1,4.7-12,4.7c-8.9,0-12-6.3-9.3-18.9c1.5-7.1,3.8-14.4,6.9-21.9
			c3.2-7.5,6.7-14.8,10.6-21.9c3.9-7.1,8-13.8,12.1-20.1c4.1-6.3,7.8-11.4,11.1-15.4c7-9.1,14.5-16.7,22.5-23
			c7.9-6.3,15.9-10,23.7-11.2c1.1-3.1,2.6-6.8,4.5-10.9c1.8-4.1,4.1-6.6,6.7-7.4c1.3-0.4,2.6-0.8,3.9-1.2c1.3-0.4,2.5-1,3.7-1.8
			c0.9-0.8,1.7-0.9,2.3-0.3c0.6,0.6,0.5,1.7-0.3,3.2c-2.6,4.3-5.1,9.8-7.3,16.5c-2.3,6.7-4.2,14-5.8,21.9c-2.3,11-2.9,20.1-1.8,27.2
			c1.1,7.1,4.9,10.6,11.2,10.6c6.4,0,12.9-3.3,19.4-10c6.6-6.7,12.4-14,17.5-21.9c0.9-2,1.8-2.6,2.8-1.8
			C166.2,519.8,166,521,164.7,522.6z M103,526.7c0.2-3.5,0.7-7.7,1.5-12.4c0.7-4.7,1.6-9.2,2.5-13.6c0.4-2,0.1-3-0.9-3
			c-2.7,0-5.8,1.5-9.4,4.4c-3.6,3-7.3,6.9-11.3,11.8c-4,4.9-8.1,10.5-12.4,16.8c-4.3,6.3-8.3,12.8-12.2,19.5
			c-5,8.7-9.8,18-14.5,28.1c-4.7,10-7.8,19.6-9.5,28.7c-0.6,2.8-0.8,5.3-0.7,7.7c0.1,2.4,1.3,3.5,3.5,3.5c4.2,0,9.5-3.7,16-11.2
			c6.5-7.5,13-16.2,19.5-26.3c6.5-10,12.4-20.2,17.6-30.4C98,540.1,101.4,532.2,103,526.7z"/>
		<path class="st3" d="M246.2,549.8c-6.5,9.8-13.6,19.8-21.5,29.8c-7.9,10-15.9,19-24,26.9c-8.2,7.9-16.1,14.4-24,19.5
			c-7.8,5.1-14.9,7.7-21.3,7.7c-2.9,0-5.5-0.7-7.7-2.1c-2.2-1.4-2.7-4.8-1.5-10.3c1.1-5.5,3.8-12.5,8.1-21c4.2-8.5,9-17.4,14.3-26.9
			c5.3-9.5,10.7-19.1,16.3-28.9c5.6-9.8,10.4-18.9,14.3-27.2c0.9-2,1.3-3.6,1.2-5c-0.1-1.4-0.9-1.5-2.3-0.3
			c-3.3,2.8-7.3,6.5-11.9,11.2c-4.7,4.7-9.5,9.7-14.4,15.1c-4.9,5.3-9.7,10.7-14.4,16.2c-4.7,5.5-8.6,10.4-11.7,14.8
			c-6,9.8-11.3,18.9-15.8,27.2c-4.5,8.3-10,17.5-16.3,27.8c-1.5,2.4-2.5,3.5-3,3.5c-1.2,0-1.8-2.2-1.8-6.5c0-4.3,0.2-7.1,0.4-8.3
			c0.7-3.5,3.3-8.4,7.6-14.5c4.3-6.1,9.1-12.9,14.4-20.4c6.6-12.6,13.4-25.9,20.5-39.9c7.1-14,13.3-26.5,18.5-37.5
			c1.1-2,2.5-3,3.9-3s2.6,1,3.4,3c0.8,2,1,4.1,0.5,6.5c-0.3,1.6-3.2,7-8.7,16.2c-5.5,9.3-11.2,20-17.2,32.2
			c6.1-6.7,12.6-13.8,19.7-21.3c7.1-7.5,13.8-14.4,20.2-20.7c6.3-6.3,11.9-11.5,16.5-15.7c4.7-4.1,7.7-6.2,9.2-6.2
			c1,0,1.7,0.9,2.2,2.7c0.5,1.8,0.6,3.5,0.2,5c-0.3,1.6-1.4,3.9-3.3,7.1c-4,6.3-9,14.4-15,24.2c-6,9.8-11.8,20-17.6,30.4
			c-5.7,10.4-10.8,20.4-15.2,29.8c-4.4,9.5-7.2,16.9-8.4,22.4c-1,4.7-1,8-0.2,9.7c0.9,1.8,2.6,2.7,5.3,2.7c4.2,0,9.6-2.6,16.3-7.7
			c6.7-5.1,13.9-11.5,21.5-19.2c7.6-7.7,15.1-16.2,22.5-25.7c7.4-9.5,13.7-18.5,18.9-27.2c0.7-1.2,1.5-1.5,2.4-0.9
			C248.4,546,248,547.4,246.2,549.8z"/>
	</g>
</g>
</svg>
